# Blender v2.71 (sub 0) OBJ File: ''
# www.blender.org
mtllib cone.mtl
o Cone
v 0.000000 -1.000000 -1.000000
v 0.195090 -1.000000 -0.980785
v 0.382683 -1.000000 -0.923880
v 0.555570 -1.000000 -0.831470
v 0.707107 -1.000000 -0.707107
v 0.831470 -1.000000 -0.555570
v 0.923880 -1.000000 -0.382683
v 0.980785 -1.000000 -0.195090
v 1.000000 -1.000000 -0.000000
v 0.000000 1.000000 0.000000
v 0.980785 -1.000000 0.195090
v 0.923880 -1.000000 0.382683
v 0.831470 -1.000000 0.555570
v 0.707107 -1.000000 0.707107
v 0.555570 -1.000000 0.831470
v 0.382683 -1.000000 0.923880
v 0.195090 -1.000000 0.980785
v -0.000000 -1.000000 1.000000
v -0.195091 -1.000000 0.980785
v -0.382684 -1.000000 0.923879
v -0.555571 -1.000000 0.831469
v -0.707107 -1.000000 0.707106
v -0.831470 -1.000000 0.555570
v -0.923880 -1.000000 0.382683
v -0.980785 -1.000000 0.195089
v -1.000000 -1.000000 -0.000001
v -0.980785 -1.000000 -0.195091
v -0.923879 -1.000000 -0.382684
v -0.831469 -1.000000 -0.555571
v -0.707106 -1.000000 -0.707108
v -0.555569 -1.000000 -0.831470
v -0.382682 -1.000000 -0.923880
v -0.195089 -1.000000 -0.980786
vt 0.668750 0.003125
vt 0.484132 1.003125
vt 0.637500 0.003125
vt 0.606250 0.003125
vt 0.575000 0.003125
vt 0.700000 0.003125
vt 0.731250 0.003125
vt 0.762500 0.003125
vt 0.793750 0.003125
vt 0.825000 0.003125
vt 0.856250 0.003125
vt 0.887500 0.003125
vt 0.918750 0.003125
vt 0.950000 0.003125
vt 0.981250 0.003125
vt 0.012500 0.003125
vt 0.043750 0.003125
vt 0.075000 0.003125
vt 0.106250 0.003125
vt 0.137500 0.003125
vt 0.168750 0.003125
vt 0.200000 0.003125
vt 0.231250 0.003125
vt 0.262500 0.003125
vt 0.293750 0.003125
vt 0.325000 0.003125
vt 0.356250 0.003125
vt 0.387500 0.003125
vt 0.418750 0.003125
vt 0.450000 0.003125
vt 0.481250 0.003125
vt 0.512500 0.003125
vt 0.543750 0.003125
vt 1.075000 0.003125
vt 1.012500 0.003125
vt 1.043750 0.003125
vn -0.330700 -0.503300 -0.798300
vn 0.000000 1.000000 0.000000
vn -0.168600 -0.503300 -0.847500
vn 0.000000 -0.503300 -0.864100
vn 0.168600 -0.503300 -0.847500
vn -0.480100 -0.503300 -0.718500
vn -0.611000 -0.503300 -0.611000
vn -0.718500 -0.503300 -0.480100
vn -0.798300 -0.503300 -0.330700
vn -0.847500 -0.503300 -0.168600
vn -0.864100 -0.503300 0.000000
vn -0.847500 -0.503300 0.168600
vn -0.798300 -0.503300 0.330700
vn -0.718500 -0.503300 0.480100
vn -0.611000 -0.503300 0.611000
vn -0.480100 -0.503300 0.718500
vn -0.330700 -0.503300 0.798300
vn -0.168600 -0.503300 0.847500
vn 0.000000 -0.503300 0.864100
vn 0.168600 -0.503300 0.847500
vn 0.330700 -0.503300 0.798300
vn 0.480100 -0.503300 0.718500
vn 0.611000 -0.503300 0.611000
vn 0.718500 -0.503300 0.480100
vn 0.798300 -0.503300 0.330700
vn 0.847500 -0.503300 0.168600
vn 0.864100 -0.503300 0.000000
vn 0.847500 -0.503300 -0.168600
vn 0.798300 -0.503300 -0.330700
vn 0.718500 -0.503300 -0.480100
vn 0.611000 -0.503300 -0.611000
vn 0.480100 -0.503300 -0.718500
vn 0.330700 -0.503300 -0.798300
usemtl None
s 1
f 32/1/1 10/2/2 33/3/3
f 1/4/4 10/2/2 2/5/5
f 31/6/6 10/2/2 32/1/1
f 30/7/7 10/2/2 31/6/6
f 29/8/8 10/2/2 30/7/7
f 28/9/9 10/2/2 29/8/8
f 27/10/10 10/2/2 28/9/9
f 26/11/11 10/2/2 27/10/10
f 25/12/12 10/2/2 26/11/11
f 24/13/13 10/2/2 25/12/12
f 23/14/14 10/2/2 24/13/13
f 22/15/15 10/2/2 23/14/14
f 21/16/16 10/2/2 22/15/15
f 20/17/17 10/2/2 21/16/16
f 19/18/18 10/2/2 20/17/17
f 18/19/19 10/2/2 19/18/18
f 17/20/20 10/2/2 18/19/19
f 16/21/21 10/2/2 17/20/20
f 15/22/22 10/2/2 16/21/21
f 14/23/23 10/2/2 15/22/22
f 13/24/24 10/2/2 14/23/23
f 12/25/25 10/2/2 13/24/24
f 11/26/26 10/2/2 12/25/25
f 9/27/27 10/2/2 11/26/26
f 8/28/28 10/2/2 9/27/27
f 7/29/29 10/2/2 8/28/28
f 6/30/30 10/2/2 7/29/29
f 5/31/31 10/2/2 6/30/30
f 4/32/32 10/2/2 5/31/31
f 3/33/33 10/2/2 4/32/32
f 33/3/3 10/2/2 1/4/4
f 2/5/5 10/2/2 3/33/33
f 17/20/20 25/12/12 8/28/28
f 33/3/3 1/4/4 2/5/5
f 2/5/5 3/33/33 4/32/32
f 6/30/30 7/29/29 5/31/31
f 8/28/28 4/32/32 7/29/29
f 8/28/28 9/27/27 11/26/26
f 13/24/24 8/28/28 12/25/25
f 15/22/22 17/20/20 14/23/23
f 15/22/22 16/21/21 17/20/20
f 17/20/20 18/19/19 19/34/18
f 21/35/16 22/15/15 23/14/14
f 23/14/14 24/13/13 25/12/12
f 25/12/12 26/11/11 27/10/10
f 28/9/9 30/7/7 33/3/3
f 19/34/18 20/36/17 17/20/20
f 31/6/6 32/1/1 33/3/3
f 33/3/3 2/5/5 4/32/32
f 7/29/29 4/32/32 5/31/31
f 17/20/20 13/24/24 14/23/23
f 20/36/17 21/35/16 23/14/14
f 20/36/17 25/12/12 17/20/20
f 25/12/12 20/36/17 23/14/14
f 28/9/9 29/8/8 30/7/7
f 8/28/28 11/26/26 12/25/25
f 33/3/3 4/32/32 8/28/28
f 8/28/28 13/24/24 17/20/20
f 25/12/12 27/10/10 28/9/9
f 28/9/9 33/3/3 8/28/28
f 30/7/7 31/6/6 33/3/3
f 25/12/12 28/9/9 8/28/28
